<!-- SVG Sprite -->
<svg width="0" height="0" class="hidden">
  <symbol xmlns="http://www.w3.org/2000/svg" viewBox="0 0 20 20" id="archive">
    <path d="M12.5 10.5083H13V10.0083V8.84167H13.6667V10.8417C13.6667 11.0264 13.5181 11.175 13.3334 11.175H6.66671C6.48202 11.175 6.33337 11.0264 6.33337 10.8417V8.84167H7.00004V10.0083V10.5083H7.50004H12.5Z"></path>
    <path d="M2.55285 5.23896L2.54173 5.23102L4.49123 2.63889L4.49172 2.63823C4.70841 2.34912 5.05813 2.17419 5.42329 2.17419H14.59C14.9562 2.17419 15.3068 2.35045 15.5249 2.64305L15.5253 2.64354L17.4717 5.24771L17.4621 5.2551L17.7552 5.64977C17.8152 5.73054 17.8333 5.79167 17.8333 5.84169V15.0084C17.8333 15.6514 17.3097 16.175 16.6666 16.175H3.33329C2.69027 16.175 2.16663 15.6514 2.16663 15.0084V5.84169C2.16663 5.79138 2.18517 5.72919 2.24579 5.64836L2.55285 5.23896ZM5.42329 2.84169H5.17369L5.02368 3.04118L3.77034 4.70785L3.16836 5.50836H4.16996H15.8358H16.8338L16.2363 4.709L14.9904 3.04234L14.8405 2.84169H14.59H5.42329ZM2.83329 15.0084V15.5084H3.33329H16.6683H17.1684L17.1683 15.0083L17.1666 6.67493L17.1665 6.17503H16.6666H3.33329H2.83329V6.67503V15.0084Z"></path>
  </symbol>
  <symbol xmlns="http://www.w3.org/2000/svg" viewBox="0 0 8 14" id="chevron">
    <path fill-rule="evenodd" clip-rule="evenodd" d="M0 7.0001C0 7.3537 0.140481 7.6929 0.390523 7.9429L5.72392 13.2763C6.24459 13.797 7.08886 13.797 7.60953 13.2763C8.1302 12.7556 8.1302 11.9113 7.60953 11.3907L3.21896 7.0001L7.60953 2.60954C8.1302 2.08883 8.1302 1.24461 7.60953 0.723897C7.08886 0.2032 6.24459 0.2032 5.72392 0.723897L0.390523 6.05729C0.140481 6.30729 0 6.64649 0 7.0001Z"></path>
  </symbol>
  <symbol xmlns="http://www.w3.org/2000/svg" viewBox="0 0 20 20" id="download">
    <path d="M3.33337 10V15.8333H16.6667V10" stroke-width="2" stroke-linecap="round" stroke-linejoin="round"></path>
    <path d="M10 2.91728L10 11.2506" stroke-width="2" stroke-linecap="round" stroke-linejoin="round"></path>
    <path d="M10 11.2506L12.8125 8.43811" stroke-width="2" stroke-linecap="round" stroke-linejoin="round"></path>
    <path d="M10 11.2506L7.1875 8.43811" stroke-width="2" stroke-linecap="round" stroke-linejoin="round"></path>
  </symbol>
  <symbol xmlns="http://www.w3.org/2000/svg" viewBox="0 0 13 13" id="search">
    <path fill-rule="evenodd" clip-rule="evenodd" d="M5.16663 1.83329C3.32568 1.83329 1.83329 3.32568 1.83329 5.16663C1.83329 7.00754 3.32568 8.49996 5.16663 8.49996C7.00754 8.49996 8.49996 7.00754 8.49996 5.16663C8.49996 3.32568 7.00754 1.83329 5.16663 1.83329ZM0.166626 5.16663C0.166626 2.4052 2.4052 0.166626 5.16663 0.166626C7.92804 0.166626 10.1666 2.4052 10.1666 5.16663C10.1666 6.24646 9.82429 7.24638 9.24221 8.06371L12.4225 11.244C12.748 11.5695 12.748 12.0971 12.4225 12.4225C12.0971 12.748 11.5695 12.748 11.244 12.4225L8.06371 9.24221C7.24638 9.82429 6.24646 10.1666 5.16663 10.1666C2.4052 10.1666 0.166626 7.92804 0.166626 5.16663Z"></path>
  </symbol>
</svg>