<svg width="20" height="20" viewBox="0 0 20 20" fill="none" xmlns="http://www.w3.org/2000/svg">
<circle cx="10" cy="10" r="10" fill="#E0E0E0"/>
<path d="M10.0001 9.76427L9.64653 9.41071L7.45127 7.21544C7.45127 7.21544 7.45127 7.21544 7.45127 7.21544C7.38618 7.15036 7.28066 7.15036 7.21557 7.21543C7.21556 7.21544 7.21556 7.21544 7.21556 7.21544M10.0001 9.76427L6.86201 7.8047C6.60166 7.54435 6.60166 7.12224 6.86201 6.86189L7.21556 7.21544M10.0001 9.76427L10.3536 9.41071M10.0001 9.76427L10.3536 9.41071M7.21556 7.21544C7.15048 7.28054 7.15048 7.38606 7.21556 7.45115L7.21556 7.21544ZM10.3536 9.41071L12.5489 7.21544L12.5489 7.21543M10.3536 9.41071L12.5489 7.21543M12.5489 7.21543C12.614 7.15036 12.7195 7.15036 12.7846 7.21543L12.5489 7.21543ZM9.41083 9.6464L7.21557 7.45115L12.7846 7.21543C12.8497 7.28052 12.8497 7.38605 12.7846 7.45115C12.7846 7.45115 12.7846 7.45116 12.7846 7.45116L10.5893 9.64641L10.2358 9.99996L10.5893 10.3535L12.7846 12.5488C12.8497 12.6139 12.8497 12.7194 12.7846 12.7845C12.7195 12.8495 12.614 12.8495 12.5489 12.7845L10.3536 10.5892L10.0001 10.2357L9.64653 10.5892L7.45128 12.7845C7.45128 12.7845 7.45127 12.7845 7.45127 12.7845C7.38617 12.8495 7.28064 12.8495 7.21555 12.7845C7.15048 12.7194 7.15048 12.6139 7.21555 12.5488L7.21556 12.5488L9.41083 10.3535L9.76439 9.99996L9.41083 9.6464Z" stroke="white"/>
</svg>
