<svg width="13" height="13" viewBox="0 0 13 13" fill="none" xmlns="http://www.w3.org/2000/svg">
<path fill-rule="evenodd" clip-rule="evenodd" d="M5.16663 1.83329C3.32568 1.83329 1.83329 3.32568 1.83329 5.16663C1.83329 7.00754 3.32568 8.49996 5.16663 8.49996C7.00754 8.49996 8.49996 7.00754 8.49996 5.16663C8.49996 3.32568 7.00754 1.83329 5.16663 1.83329ZM0.166626 5.16663C0.166626 2.4052 2.4052 0.166626 5.16663 0.166626C7.92804 0.166626 10.1666 2.4052 10.1666 5.16663C10.1666 6.24646 9.82429 7.24638 9.24221 8.06371L12.4225 11.244C12.748 11.5695 12.748 12.0971 12.4225 12.4225C12.0971 12.748 11.5695 12.748 11.244 12.4225L8.06371 9.24221C7.24638 9.82429 6.24646 10.1666 5.16663 10.1666C2.4052 10.1666 0.166626 7.92804 0.166626 5.16663Z" fill="#18A0FB"/>
</svg>
